<svg xmlns="http://www.w3.org/2000/svg" height="800" width="1200" viewBox="-31.155 -39.725 270.01 238.35" style="background-color: #222"><g fill-rule="evenodd" fill="none"><path fill-rule="nonzero" fill="#FFF" d="M153.3 33.6c-2.8-6.6-6.8-12.5-11.8-17.5-5.1-5.1-11-9-17.5-11.8-6.8-2.9-14-4.3-21.5-4.3C95.1 0 87.8 1.5 81 4.3 74.4 7 68.5 11 63.5 16.1c-5.1 5.1-9 11-11.8 17.5-2.9 6.8-4.3 14-4.3 21.5s1.5 14.7 4.3 21.5c2.8 6.6 6.8 12.5 11.8 17.5 5.1 5.1 11 9 17.5 11.8 6.8 2.9 14 4.3 21.5 4.3 7.4 0 14.7-1.5 21.5-4.3 6.5-2.8 12.4-6.8 17.5-11.8 5.1-5.1 9-11 11.8-17.5 2.9-6.8 4.3-14 4.3-21.5s-1.4-14.7-4.3-21.5zm-38.8 71c-3.2-5.4-11.6-20.5-11.6-31.7 0-25.8 17.3-3.7 17.3-24.3 0-4.9-2.4-22.1-17.4-25.7-3.7-4.9-12.4-9.6-26.2-7.7 0 0 2.3.7 4.9 2 0 0-5 .7-5.2 4.1 0 0 9.9-.5 15.5 1.3-12.9 1.7-19.5 8.5-18.3 20.8 1.7 17.5 9.1 48.7 11.7 59.6-19.6-7-33.7-25.8-33.7-47.9 0-28.1 22.8-51 51-51s51 22.8 51 51c-.1 24-16.7 44.1-39 49.5z"/><path fill="#FED30A" d="M99.7 63.4c0-6.6 9-8.7 12.4-8.7 9.2 0 22.2-5.9 25.4-5.8 3.3.1 5.4 1.4 5.4 2.9 0 2.2-18.4 10.5-25.5 9.8-6.8-.6-8.4.1-8.4 2.9 0 2.4 4.9 4.6 10.3 4.6 8.1 0 16-3.6 18.4-1.9 2.1 1.5-5.5 6.9-14.2 6.9S99.7 70 99.7 63.4z"/><path d="M115.7 35.4c-2.4-3.1-6.7-3.2-8.2.4 2.3-1.8 5.1-2.2 8.2-.4zm-26.7.1c-3.3-2-8.8-2.2-8.5 4.1 1.6-3.9 3.8-4.6 8.5-4.1zm24.7 5.8c-1.8 0-3.3 1.5-3.3 3.3 0 1.8 1.5 3.3 3.3 3.3 1.8 0 3.3-1.5 3.3-3.3 0-1.8-1.5-3.3-3.3-3.3zm1.2 3.1c-.5 0-1-.4-1-1 0-.5.4-1 1-1s1 .4 1 1c-.1.5-.5 1-1 1zm-26.8-1.3c-2.1 0-3.8 1.7-3.8 3.8 0 2.1 1.7 3.8 3.8 3.8 2.1 0 3.8-1.7 3.8-3.8 0-2.1-1.7-3.8-3.8-3.8zm1.4 3.5c-.6 0-1.1-.5-1.1-1.1 0-.6.5-1.1 1.1-1.1.6 0 1.1.5 1.1 1.1 0 .6-.5 1.1-1.1 1.1z" fill-rule="nonzero" fill="#2D4F8D"/><path d="M79.8 26.9c-4.8 3.5-7 8.9-6.3 16.5 1.7 17.5 9.1 48.8 11.7 59.7l2.7.9c-1.6-6.6-9.3-38.8-12.7-63.5-.9-6.6 1.7-10.5 4.6-13.6zm11.9-4.3c.4 0 .7-.1.7-.1-5.2-2.5-13.4-2.6-15.6-2.6-.2.4-.4.9-.4 1.4-.1.1 9.6-.5 15.3 1.3zm-9.4-5.4c-1.6-1.1-2.9-1.8-3.7-2.2-.7.1-1.3.1-2 .2 0 0 2.3.7 4.9 2h-.2 1z" fill-rule="nonzero" fill="#D5D7D8"/><g fill-rule="nonzero"><path fill="#67BD47" d="M122.6 83.7c-1.7-.4-8.3 4.3-10.8 6.1-.1-.5-.2-.9-.3-1.1-.3-1-6.7-.4-8.2 1.2-4-1.9-12-5.6-12.1-3.3-.3 3 0 15.5 1.6 16.4 1.2.7 8-3 11.4-4.9h.1c2.1.5 6 0 7.4-.9.2-.1.3-.3.4-.5 3.1 1.2 9.8 3.6 11.2 3.1 1.8-.5 1.4-15.6-.7-16.1z"/><path fill="#43A347" d="M104.3 98.1c-2.1-.4-1.4-2.5-1.4-7.4-.5.3-.9.7-.9 1.1 0 4.9-.8 7.1 1.4 7.4 2.1.5 6 0 7.6-.9.3-.2.4-.5.5-1-1.5.9-5.2 1.3-7.2.8z"/></g><path d="M0 156.7v-24.6h8.9c8.5 0 12.4 6.2 12.4 12 0 6.3-3.8 12.6-12.4 12.6zm2.8-2.9h6.1c6.6 0 9.5-4.9 9.5-9.8 0-4.5-3-9.3-9.5-9.3H2.8zm29.7 3.2c-4.6 0-7.5-3.1-7.5-8v-9.6h2.7v9.5c0 3.5 2 5.6 5.4 5.6 3.2 0 5.5-2.5 5.5-5.8v-9.3h2.7v17.3h-2.4l-.2-3-.4.5c-1.5 1.8-3.4 2.7-5.8 2.8zm21.7 0c-4.5 0-9-2.8-9-8.9 0-5.4 3.6-8.9 9-8.9 2.4 0 4.4.8 6.2 2.5l-1.7 1.7c-1.2-1.1-2.8-1.7-4.4-1.7-3.8 0-6.4 2.6-6.4 6.4 0 4.4 3.2 6.4 6.4 6.4 1.8 0 3.4-.6 4.6-1.8l1.7 1.7c-1.8 1.7-4 2.6-6.4 2.6zm12.4-.3H64v-24.6h2.6V147l7.4-7.6h3.5l-8.2 8.1 9.2 9.1v.1h-3.4l-8.5-8.5zm15.1 0v-24.6h8.9c8.5 0 12.4 6.2 12.4 12 0 6.3-3.8 12.6-12.4 12.6zm2.9-2.9h6.1c6.6 0 9.5-4.9 9.5-9.8 0-4.5-3-9.3-9.5-9.3h-6.1zm29.6 3.2c-4.6 0-7.5-3.1-7.5-8v-9.6h2.7v9.5c0 3.5 2 5.6 5.4 5.6 3.2 0 5.5-2.5 5.5-5.8v-9.3h2.7v17.3h-2.4l-.1-3-.4.5c-1.5 1.8-3.5 2.7-5.9 2.8zm21.7 0c-4.5 0-9-2.8-9-8.9 0-5.4 3.6-8.9 9-8.9 2.4 0 4.4.8 6.2 2.5l-1.7 1.7c-1.2-1.1-2.8-1.7-4.4-1.7-3.8 0-6.4 2.6-6.4 6.4 0 4.4 3.2 6.4 6.4 6.4 1.8 0 3.4-.6 4.6-1.8l1.7 1.7-.1.1c-1.7 1.7-3.8 2.5-6.3 2.5zm12.5-.3h-2.6v-24.6h2.6V147l7.4-7.6h3.4l-8.1 8.1 9.1 9.1v.1h-3.4l-8.4-8.5zm25.7.4c-9.5 0-12.8-6.8-12.8-12.5 0-3.8 1.3-7.1 3.6-9.5 2.3-2.3 5.5-3.5 9.2-3.5 3.4 0 6.5 1.3 8.9 3.6l-1.6 1.9c-1.9-1.8-4.7-2.9-7.3-2.9-6.9 0-10 5.4-10 10.4 0 4.9 3.1 9.9 10.1 9.9 2.5 0 4.9-.9 6.8-2.5l.1-.1v-6.1h-7.7v-2.5h10.3v9.6c-2.7 2.9-5.8 4.2-9.6 4.2zm21.8-.1c-5.2 0-8.9-3.7-8.9-8.9s3.8-9.1 8.9-9.1c5.3 0 9 3.7 9 9.1-.1 5.1-3.8 8.9-9 8.9zm0-15.6c-3.7 0-6.3 2.7-6.3 6.6 0 3.7 2.6 6.4 6.3 6.4 3.7 0 6.3-2.6 6.4-6.4-.1-3.8-2.7-6.6-6.4-6.6z" fill-rule="nonzero" fill="#FFF"/><g fill-rule="nonzero" fill="#FFF"><path d="M206.4 157.3c.2-.1.3-.2.3-.4s-.1-.3-.2-.4c-.1-.1-.3-.1-.6-.1s-.5 0-.6.1v1.6h.4v-.7h.2c.2 0 .3.1.3.3.1.2.1.3.1.4h.4c0-.1-.1-.2-.1-.4s-.1-.3-.2-.4zm-.5-.1h-.2v-.5h.2c.2 0 .3.1.3.2.1.2 0 .3-.3.3z"/><path d="M206 155.6c-.9 0-1.7.7-1.7 1.6 0 .9.7 1.7 1.7 1.7.9 0 1.7-.7 1.7-1.7 0-.9-.7-1.6-1.7-1.6zm0 3c-.7 0-1.3-.6-1.3-1.3 0-.7.5-1.3 1.3-1.3.7 0 1.3.6 1.3 1.3 0 .7-.6 1.3-1.3 1.3z"/></g></g></svg>